<svg xmlns="http://www.w3.org/2000/svg" x="0px" y="0px"
width="96" height="96"
viewBox="0 0 172 172"
style=" fill:#000000;"><g fill="none" fill-rule="nonzero" stroke="none" stroke-width="1" stroke-linecap="butt" stroke-linejoin="miter" stroke-miterlimit="10" stroke-dasharray="" stroke-dashoffset="0" font-family="none" font-weight="none" font-size="none" text-anchor="none" style="mix-blend-mode: normal"><path d="M0,172v-172h172v172z" fill="none"></path><g fill="#ffffff"><path d="M44.79167,21.5c-12.79944,0 -23.29167,10.49222 -23.29167,23.29167v82.41667c0,12.79944 10.49222,23.29167 23.29167,23.29167h82.41667c12.79944,0 23.29167,-10.49222 23.29167,-23.29167v-82.41667c0,-12.79944 -10.49222,-23.29167 -23.29167,-23.29167zM44.79167,32.25h82.41667c6.98772,0 12.54167,5.55394 12.54167,12.54167v5.375h-107.5v-5.375c0,-6.98772 5.55394,-12.54167 12.54167,-12.54167zM32.25,60.91667h107.5v66.29167c0,6.98772 -5.55394,12.54167 -12.54167,12.54167h-82.41667c-6.98772,0 -12.54167,-5.55394 -12.54167,-12.54167zM53.75,78.83333c-1.83825,0 -3.48697,1.12522 -4.16422,2.83447l-13.4375,34.04167c-0.90658,2.30408 0.21903,4.90233 2.51953,5.80892c2.30767,0.91017 4.90233,-0.21903 5.80892,-2.51953l1.35775,-3.43636h15.83105l1.35775,3.43636c0.69517,1.763 2.37614,2.84147 4.16422,2.84147c0.54825,0 1.10361,-0.11052 1.64469,-0.32194c2.3005,-0.91017 3.42611,-3.50842 2.51953,-5.80892l-13.4375,-34.04167c-0.67725,-1.71283 -2.32597,-2.83447 -4.16422,-2.83447zM79.72917,78.84033c-2.4725,0 -4.47917,2.00667 -4.47917,4.47917v34.04167c0,2.4725 2.00667,4.47917 4.47917,4.47917c2.4725,0 4.47917,-2.00667 4.47917,-4.47917v-6.27083h3.58333c8.89025,0 16.125,-7.23475 16.125,-16.125c0,-8.89025 -7.23475,-16.125 -16.125,-16.125zM111.97917,78.84033c-2.4725,0 -4.47917,2.00667 -4.47917,4.47917v34.04167c0,2.4725 2.00667,4.47917 4.47917,4.47917c2.4725,0 4.47917,-2.00667 4.47917,-4.47917v-6.27083h3.58333c0.42867,0 0.83242,-0.09296 1.25277,-0.12598l6.80973,9.08431c0.8815,1.17533 2.22866,1.79167 3.59033,1.79167c0.93525,0 1.87425,-0.29383 2.6805,-0.89583c1.98158,-1.4835 2.37933,-4.29283 0.89583,-6.27083l-5.31901,-7.08968c3.75408,-2.95518 6.21484,-7.48216 6.21484,-12.61865c0,-8.89025 -7.23475,-16.125 -16.125,-16.125zM84.20833,87.79866h3.58333c3.95242,0 7.16667,3.21425 7.16667,7.16667c0,3.95242 -3.21425,7.16667 -7.16667,7.16667h-3.58333zM116.45833,87.79866h3.58333c3.95242,0 7.16667,3.21425 7.16667,7.16667c0,3.95242 -3.21425,7.16667 -7.16667,7.16667h-3.58333zM53.75,95.51123l4.38118,11.09294h-8.76237z"></path></g></g></svg>