<svg xmlns="http://www.w3.org/2000/svg" x="0px" y="0px"
width="96" height="96"
viewBox="0 0 172 172"
style=" fill:#000000;"><g fill="none" fill-rule="nonzero" stroke="none" stroke-width="1" stroke-linecap="butt" stroke-linejoin="miter" stroke-miterlimit="10" stroke-dasharray="" stroke-dashoffset="0" font-family="none" font-weight="none" font-size="none" text-anchor="none" style="mix-blend-mode: normal"><path d="M0,172v-172h172v172z" fill="none"></path><g fill="#ffffff"><path d="M44.79167,21.5c-12.79944,0 -23.29167,10.49222 -23.29167,23.29167v82.41667c0,12.79944 10.49222,23.29167 23.29167,23.29167h82.41667c12.79944,0 23.29167,-10.49222 23.29167,-23.29167v-82.41667c0,-12.79944 -10.49222,-23.29167 -23.29167,-23.29167zM44.79167,32.25h82.41667c6.98772,0 12.54167,5.55394 12.54167,12.54167v5.375h-107.5v-5.375c0,-6.98772 5.55394,-12.54167 12.54167,-12.54167zM32.25,60.91667h107.5v66.29167c0,6.98772 -5.55394,12.54167 -12.54167,12.54167h-82.41667c-6.98772,0 -12.54167,-5.55394 -12.54167,-12.54167zM51.95833,78.83333c-1.9135,0 -3.6143,1.21727 -4.23421,3.03044l-11.64583,34.04167c-0.79908,2.33992 0.44557,4.89086 2.78548,5.68994c2.34708,0.80267 4.88728,-0.45256 5.68994,-2.79248l1.41374,-4.13623h11.98177l1.41374,4.13623c0.63783,1.85975 2.37788,3.03044 4.24121,3.03044c0.48375,0 0.96856,-0.07654 1.44873,-0.24495c2.33992,-0.79908 3.59515,-3.34303 2.79248,-5.68294l-11.64583,-34.04167c-0.61992,-1.80958 -2.32771,-3.03044 -4.24121,-3.03044zM76.14583,78.84033c-2.4725,0 -4.47917,2.00667 -4.47917,4.47917v24.1875c0,7.90483 6.4285,14.33333 14.33333,14.33333c7.90483,0 14.33333,-6.43208 14.33333,-14.33333v-24.1875c0,-2.47608 -2.00667,-4.47917 -4.47917,-4.47917c-2.4725,0 -4.47917,2.00667 -4.47917,4.47917v24.1875c0,2.96342 -2.41158,5.375 -5.375,5.375c-2.96342,0 -5.375,-2.41158 -5.375,-5.375v-24.1875c0,-2.4725 -2.00667,-4.47917 -4.47917,-4.47917zM121.74235,78.84033c-9.82908,0 -17.82568,9.64275 -17.82568,21.5c0,11.85725 7.9966,21.5 17.82568,21.5c7.71492,0 12.38299,-5.10507 13.92741,-8.11149c0.32608,-0.63425 0.49691,-1.33412 0.49691,-2.04362v-8.65739c0,-2.4725 -2.00667,-4.47917 -4.47917,-4.47917h-5.375c-2.4725,0 -4.47917,2.00667 -4.47917,4.47917c0,2.4725 2.00667,4.47917 4.47917,4.47917h0.89583v2.83447c-0.78117,0.95317 -2.52407,2.54053 -5.46598,2.54053c-4.80525,0 -8.86735,-5.74408 -8.86735,-12.54167c0,-6.79758 4.0621,-12.54167 8.86735,-12.54167c3.69083,0 5.48665,2.47032 5.9489,3.2264c1.28642,2.11417 4.03769,2.77714 6.15185,1.49072c2.11417,-1.28642 2.78072,-4.04827 1.49072,-6.15885c-1.075,-1.76658 -5.23514,-7.5166 -13.59147,-7.5166zM51.95833,97.14893l2.92545,8.55941h-5.85091z"></path></g></g></svg>