<svg xmlns="http://www.w3.org/2000/svg" x="0px" y="0px"
width="96" height="96"
viewBox="0 0 172 172"
style=" fill:#000000;"><g fill="none" fill-rule="nonzero" stroke="none" stroke-width="1" stroke-linecap="butt" stroke-linejoin="miter" stroke-miterlimit="10" stroke-dasharray="" stroke-dashoffset="0" font-family="none" font-weight="none" font-size="none" text-anchor="none" style="mix-blend-mode: normal"><path d="M0,172v-172h172v172z" fill="none"></path><g fill="#ffffff"><path d="M44.79167,21.5c-12.79944,0 -23.29167,10.49222 -23.29167,23.29167v82.41667c0,12.79944 10.49222,23.29167 23.29167,23.29167h82.41667c12.79944,0 23.29167,-10.49222 23.29167,-23.29167v-82.41667c0,-12.79944 -10.49222,-23.29167 -23.29167,-23.29167zM44.79167,32.25h82.41667c6.98772,0 12.54167,5.55394 12.54167,12.54167v5.375h-107.5v-5.375c0,-6.98772 5.55394,-12.54167 12.54167,-12.54167zM32.25,60.91667h107.5v66.29167c0,6.98772 -5.55394,12.54167 -12.54167,12.54167h-82.41667c-6.98772,0 -12.54167,-5.55394 -12.54167,-12.54167zM43.89583,78.84033c-2.4725,0 -4.47917,2.00667 -4.47917,4.47917v34.04167c0,2.4725 2.00667,4.47917 4.47917,4.47917h6.27083c11.85725,0 21.5,-9.64275 21.5,-21.5c0,-11.85725 -9.64275,-21.5 -21.5,-21.5zM79.72917,78.84033c-2.4725,0 -4.47917,2.00667 -4.47917,4.47917v34.04167c0,2.4725 2.00667,4.47917 4.47917,4.47917h17.91667c2.4725,0 4.47917,-2.00667 4.47917,-4.47917c0,-2.4725 -2.00667,-4.47917 -4.47917,-4.47917h-13.4375v-8.0625h9.85417c2.4725,0 4.47917,-2.00667 4.47917,-4.47917c0,-2.4725 -2.00667,-4.47917 -4.47917,-4.47917h-9.85417v-8.0625h13.4375c2.4725,0 4.47917,-2.00667 4.47917,-4.47917c0,-2.4725 -2.00667,-4.47917 -4.47917,-4.47917zM121.87533,78.84033c-9.90075,0 -17.95866,9.64275 -17.95866,21.5c0,11.85725 8.05433,21.5 17.95866,21.5c8.43158,0 12.57621,-5.7746 13.64046,-7.5376c1.28283,-2.11775 0.60603,-4.86561 -1.51172,-6.14486c-2.11058,-1.27925 -4.87261,-0.60245 -6.15185,1.51172c-0.45508,0.7525 -2.23589,3.2124 -5.97689,3.2124c-4.8805,0 -9.00033,-5.74408 -9.00033,-12.54167c0,-6.79758 4.11983,-12.54167 9.00033,-12.54167c3.73742,0 5.5218,2.4599 5.97689,3.2124c1.28642,2.11417 4.04485,2.79097 6.15185,1.51172c2.11775,-1.28283 2.79097,-4.03769 1.51172,-6.15185c-1.07142,-1.77017 -5.21604,-7.5306 -13.64046,-7.5306zM48.375,87.79866h1.79167c6.91583,0 12.54167,5.62583 12.54167,12.54167c0,6.91583 -5.62583,12.54167 -12.54167,12.54167h-1.79167z"></path></g></g></svg>