<svg xmlns="http://www.w3.org/2000/svg" x="0px" y="0px"
width="96" height="96"
viewBox="0 0 172 172"
style=" fill:#000000;"><g fill="none" fill-rule="nonzero" stroke="none" stroke-width="1" stroke-linecap="butt" stroke-linejoin="miter" stroke-miterlimit="10" stroke-dasharray="" stroke-dashoffset="0" font-family="none" font-weight="none" font-size="none" text-anchor="none" style="mix-blend-mode: normal"><path d="M0,172v-172h172v172z" fill="none"></path><g fill="#ffffff"><path d="M44.79167,21.5c-12.79944,0 -23.29167,10.49222 -23.29167,23.29167v82.41667c0,12.79944 10.49222,23.29167 23.29167,23.29167h82.41667c12.79944,0 23.29167,-10.49222 23.29167,-23.29167v-82.41667c0,-12.79944 -10.49222,-23.29167 -23.29167,-23.29167zM44.79167,32.25h82.41667c6.98772,0 12.54167,5.55394 12.54167,12.54167v5.375h-107.5v-5.375c0,-6.98772 5.55394,-12.54167 12.54167,-12.54167zM32.25,60.91667h107.5v66.29167c0,6.98772 -5.55394,12.54167 -12.54167,12.54167h-82.41667c-6.98772,0 -12.54167,-5.55394 -12.54167,-12.54167zM43.89583,78.84033c-2.4725,0 -4.47917,2.00667 -4.47917,4.47917v34.04167c0,2.4725 2.00667,4.47917 4.47917,4.47917c2.4725,0 4.47917,-2.00667 4.47917,-4.47917v-12.54167h9.85417c2.4725,0 4.47917,-2.00667 4.47917,-4.47917c0,-2.4725 -2.00667,-4.47917 -4.47917,-4.47917h-9.85417v-8.0625h13.4375c2.4725,0 4.47917,-2.00667 4.47917,-4.47917c0,-2.4725 -2.00667,-4.47917 -4.47917,-4.47917zM76.14583,78.84033c-2.4725,0 -4.47917,2.00667 -4.47917,4.47917v34.04167c0,2.4725 2.00667,4.47917 4.47917,4.47917h17.91667c2.4725,0 4.47917,-2.00667 4.47917,-4.47917c0,-2.4725 -2.00667,-4.47917 -4.47917,-4.47917h-13.4375v-8.0625h9.85417c2.4725,0 4.47917,-2.00667 4.47917,-4.47917c0,-2.4725 -2.00667,-4.47917 -4.47917,-4.47917h-9.85417v-8.0625h13.4375c2.4725,0 4.47917,-2.00667 4.47917,-4.47917c0,-2.4725 -2.00667,-4.47917 -4.47917,-4.47917zM108.39583,78.84033c-2.4725,0 -4.47917,2.00667 -4.47917,4.47917v34.04167c0,2.4725 2.00667,4.47917 4.47917,4.47917h14.78125c7.16308,0 12.98958,-5.8265 12.98958,-12.98958c0,-3.7625 -1.60556,-7.15648 -4.17122,-9.53223c1.50142,-2.11775 2.37956,-4.70077 2.37956,-7.48861c0,-7.16308 -5.8265,-12.98958 -12.98958,-12.98958zM112.875,87.79866h8.51042c2.22167,0 4.03125,1.80958 4.03125,4.03125c0,2.22167 -1.80958,4.03125 -4.03125,4.03125h-8.51042zM112.875,104.8195h8.51042h1.79167c2.22167,0 4.03125,1.80958 4.03125,4.03125c0,2.22167 -1.80958,4.03125 -4.03125,4.03125h-10.30208z"></path></g></g></svg>