<svg xmlns="http://www.w3.org/2000/svg" x="0px" y="0px"
width="96" height="96"
viewBox="0 0 172 172"
style=" fill:#000000;"><g fill="none" fill-rule="nonzero" stroke="none" stroke-width="1" stroke-linecap="butt" stroke-linejoin="miter" stroke-miterlimit="10" stroke-dasharray="" stroke-dashoffset="0" font-family="none" font-weight="none" font-size="none" text-anchor="none" style="mix-blend-mode: normal"><path d="M0,172v-172h172v172z" fill="none"></path><g fill="#ffffff"><path d="M44.79167,21.5c-12.79944,0 -23.29167,10.49222 -23.29167,23.29167v82.41667c0,12.79944 10.49222,23.29167 23.29167,23.29167h82.41667c12.79944,0 23.29167,-10.49222 23.29167,-23.29167v-82.41667c0,-12.79944 -10.49222,-23.29167 -23.29167,-23.29167zM44.79167,32.25h82.41667c6.98772,0 12.54167,5.55394 12.54167,12.54167v5.375h-107.5v-5.375c0,-6.98772 5.55394,-12.54167 12.54167,-12.54167zM32.25,60.91667h107.5v66.29167c0,6.98772 -5.55394,12.54167 -12.54167,12.54167h-82.41667c-6.98772,0 -12.54167,-5.55394 -12.54167,-12.54167zM108.49382,78.83333c-0.47216,-0.01002 -0.95132,0.05694 -1.42074,0.20296c-1.87408,0.5805 -3.15641,2.31953 -3.15641,4.2832v34.04167c0,2.4725 2.00667,4.47917 4.47917,4.47917c2.4725,0 4.47917,-2.00667 4.47917,-4.47917v-17.02083l11.53385,19.54736c0.85283,1.24342 2.24406,1.95264 3.69531,1.95264c0.44075,0 0.88559,-0.0668 1.32276,-0.20296c1.87408,-0.5805 3.15641,-2.31254 3.15641,-4.2762v-34.04167c0,-2.47608 -2.01366,-4.47917 -4.48616,-4.47917c-2.4725,0 -4.47917,2.00667 -4.47917,4.47917v17.02083l-11.52686,-19.55436c-0.83044,-1.21475 -2.18085,-1.92257 -3.59733,-1.95264zM60.02083,78.84033c-2.4725,0 -4.47917,2.00667 -4.47917,4.47917v25.08333c0,2.3435 -2.32659,4.47917 -4.88509,4.47917c-1.87408,0 -3.75567,-1.14924 -4.46517,-2.72949c-1.0105,-2.2575 -3.66698,-3.25691 -5.9209,-2.25358c-2.2575,1.0105 -3.26408,3.6634 -2.25358,5.9209c2.15,4.79808 7.23598,8.02051 12.63965,8.02051c7.50708,0 13.84342,-6.15617 13.84342,-13.4375v-25.08333c0,-2.47608 -2.00667,-4.47917 -4.47917,-4.47917zM84.3903,78.84033c-1.98102,-0.08212 -3.78036,1.14781 -4.42318,3.02344l-11.64583,34.04167c-0.80204,2.34236 0.44663,4.8914 2.78898,5.69344c2.34236,0.80204 4.8914,-0.44663 5.69344,-2.78898l1.41374,-4.13623h11.98177l1.41374,4.13623c0.80204,2.34236 3.35109,3.59103 5.69344,2.78898c2.34236,-0.80204 3.59103,-3.35109 2.78898,-5.69344l-11.64583,-34.04167c-0.59952,-1.74891 -2.2119,-2.94985 -4.05925,-3.02344zM84.20833,97.16292l2.92545,8.55241h-5.85091z"></path></g></g></svg>