<svg xmlns="http://www.w3.org/2000/svg" x="0px" y="0px"
width="96" height="96"
viewBox="0 0 172 172"
style=" fill:#000000;"><g fill="none" fill-rule="nonzero" stroke="none" stroke-width="1" stroke-linecap="butt" stroke-linejoin="miter" stroke-miterlimit="10" stroke-dasharray="" stroke-dashoffset="0" font-family="none" font-weight="none" font-size="none" text-anchor="none" style="mix-blend-mode: normal"><path d="M0,172v-172h172v172z" fill="none"></path><g fill="#ffffff"><path d="M44.79167,21.5c-12.79944,0 -23.29167,10.49222 -23.29167,23.29167v82.41667c0,12.79944 10.49222,23.29167 23.29167,23.29167h82.41667c12.79944,0 23.29167,-10.49222 23.29167,-23.29167v-82.41667c0,-12.79944 -10.49222,-23.29167 -23.29167,-23.29167zM44.79167,32.25h82.41667c6.98772,0 12.54167,5.55394 12.54167,12.54167v5.375h-107.5v-5.375c0,-6.98772 5.55394,-12.54167 12.54167,-12.54167zM32.25,60.91667h107.5v66.29167c0,6.98772 -5.55394,12.54167 -12.54167,12.54167h-82.41667c-6.98772,0 -12.54167,-5.55394 -12.54167,-12.54167zM111.97917,78.83333c-2.4725,0 -4.47917,2.00667 -4.47917,4.47917v34.04167c0,2.4725 2.00667,4.47917 4.47917,4.47917h17.91667c2.4725,0 4.47917,-2.00667 4.47917,-4.47917c0,-2.4725 -2.00667,-4.47917 -4.47917,-4.47917h-13.4375v-29.5625c0,-2.4725 -2.00667,-4.47917 -4.47917,-4.47917zM63.60417,78.84033c-2.4725,0 -4.47917,2.00667 -4.47917,4.47917v25.08333c0,2.3435 -2.32659,4.47917 -4.88509,4.47917c-1.87408,0 -3.75567,-1.14924 -4.46517,-2.72949c-1.0105,-2.2575 -3.66698,-3.25691 -5.9209,-2.25358c-2.2575,1.0105 -3.26408,3.6634 -2.25358,5.9209c2.15,4.79808 7.23598,8.02051 12.63965,8.02051c7.50708,0 13.84342,-6.15617 13.84342,-13.4375v-25.08333c0,-2.47608 -2.00667,-4.47917 -4.47917,-4.47917zM76.14583,78.84033c-2.4725,0 -4.47917,2.00667 -4.47917,4.47917v22.39583c0,8.89025 7.23475,16.125 16.125,16.125c8.89025,0 16.125,-7.23475 16.125,-16.125v-22.39583c0,-2.47608 -2.00667,-4.47917 -4.47917,-4.47917c-2.4725,0 -4.47917,2.00667 -4.47917,4.47917v22.39583c0,3.95242 -3.21425,7.16667 -7.16667,7.16667c-3.95242,0 -7.16667,-3.21425 -7.16667,-7.16667v-22.39583c0,-2.4725 -2.00667,-4.47917 -4.47917,-4.47917z"></path></g></g></svg>