<svg xmlns="http://www.w3.org/2000/svg" x="0px" y="0px"
width="96" height="96"
viewBox="0 0 172 172"
style=" fill:#000000;"><g fill="none" fill-rule="nonzero" stroke="none" stroke-width="1" stroke-linecap="butt" stroke-linejoin="miter" stroke-miterlimit="10" stroke-dasharray="" stroke-dashoffset="0" font-family="none" font-weight="none" font-size="none" text-anchor="none" style="mix-blend-mode: normal"><path d="M0,172v-172h172v172z" fill="none"></path><g fill="#ffffff"><path d="M44.79167,21.5c-12.79944,0 -23.29167,10.49222 -23.29167,23.29167v82.41667c0,12.79944 10.49222,23.29167 23.29167,23.29167h82.41667c12.79944,0 23.29167,-10.49222 23.29167,-23.29167v-82.41667c0,-12.79944 -10.49222,-23.29167 -23.29167,-23.29167zM44.79167,32.25h82.41667c6.98772,0 12.54167,5.55394 12.54167,12.54167v5.375h-107.5v-5.375c0,-6.98772 5.55394,-12.54167 12.54167,-12.54167zM32.25,60.91667h107.5v66.29167c0,6.98772 -5.55394,12.54167 -12.54167,12.54167h-82.41667c-6.98772,0 -12.54167,-5.55394 -12.54167,-12.54167zM87.79167,78.83333c-1.9135,0 -3.6143,1.21727 -4.23421,3.03044l-11.64583,34.04167c-0.79908,2.33992 0.44557,4.89086 2.78548,5.68994c2.34708,0.80267 4.88728,-0.45256 5.68994,-2.79248l1.41374,-4.13623h11.98177l1.41374,4.13623c0.63783,1.85975 2.37788,3.03044 4.24121,3.03044c0.48375,0 0.96856,-0.07654 1.44873,-0.24495c2.33992,-0.79908 3.59515,-3.34303 2.79248,-5.68294l-11.64583,-34.04167c-0.61992,-1.80958 -2.32771,-3.03044 -4.24121,-3.03044zM40.34049,78.84033c-0.46751,-0.00364 -0.93928,0.06215 -1.39974,0.20996c-1.85258,0.59842 -3.10742,2.32704 -3.10742,4.2692v34.04167c0,2.4725 2.01366,4.47917 4.48616,4.47917c2.4725,0 4.47917,-2.00667 4.47917,-4.47917v-20.14925l3.52734,4.90609c1.68058,2.33992 5.58748,2.33992 7.27165,0l3.52734,-4.90609v20.14925c0,2.4725 2.00667,4.47917 4.47917,4.47917c2.4725,0 4.47917,-2.00667 4.47917,-4.47917v-34.04167c0,-1.94575 -1.25484,-3.67437 -3.10742,-4.2692c-1.849,-0.59125 -3.87873,0.07502 -5.01107,1.65169l-8.00651,11.13493l-8.00651,-11.13493c-0.84925,-1.1825 -2.20879,-1.85073 -3.61133,-1.86165zM111.97917,78.84033c-2.4725,0 -4.47917,2.00667 -4.47917,4.47917v34.04167c0,2.4725 2.00667,4.47917 4.47917,4.47917c2.4725,0 4.47917,-2.00667 4.47917,-4.47917v-6.27083h3.58333c0.42867,0 0.83242,-0.09296 1.25277,-0.12598l6.80973,9.08431c0.8815,1.17533 2.22866,1.79167 3.59033,1.79167c0.93525,0 1.87425,-0.29383 2.6805,-0.89583c1.98158,-1.4835 2.37933,-4.29283 0.89583,-6.27083l-5.31901,-7.08968c3.75408,-2.95518 6.21484,-7.48216 6.21484,-12.61865c0,-8.89025 -7.23475,-16.125 -16.125,-16.125zM116.45833,87.79866h3.58333c3.95242,0 7.16667,3.21425 7.16667,7.16667c0,3.95242 -3.21425,7.16667 -7.16667,7.16667h-3.58333zM87.79167,97.14893l2.92545,8.55941h-5.85091z"></path></g></g></svg>