<svg xmlns="http://www.w3.org/2000/svg" x="0px" y="0px"
width="96" height="96"
viewBox="0 0 172 172"
style=" fill:#000000;"><g fill="none" fill-rule="nonzero" stroke="none" stroke-width="1" stroke-linecap="butt" stroke-linejoin="miter" stroke-miterlimit="10" stroke-dasharray="" stroke-dashoffset="0" font-family="none" font-weight="none" font-size="none" text-anchor="none" style="mix-blend-mode: normal"><path d="M0,172v-172h172v172z" fill="none"></path><g fill="#ffffff"><path d="M44.79167,21.5c-12.79944,0 -23.29167,10.49222 -23.29167,23.29167v82.41667c0,12.79944 10.49222,23.29167 23.29167,23.29167h82.41667c12.79944,0 23.29167,-10.49222 23.29167,-23.29167v-82.41667c0,-12.79944 -10.49222,-23.29167 -23.29167,-23.29167zM44.79167,32.25h82.41667c6.98772,0 12.54167,5.55394 12.54167,12.54167v5.375h-107.5v-5.375c0,-6.98772 5.55394,-12.54167 12.54167,-12.54167zM32.25,60.91667h107.5v66.29167c0,6.98772 -5.55394,12.54167 -12.54167,12.54167h-82.41667c-6.98772,0 -12.54167,-5.55394 -12.54167,-12.54167zM87.79167,78.83333c-1.9135,0 -3.6143,1.21727 -4.23421,3.03044l-11.64583,34.04167c-0.79908,2.33992 0.44557,4.89086 2.78548,5.68994c2.34708,0.80267 4.88728,-0.45256 5.68994,-2.79248l1.41374,-4.13623h11.98177l1.41374,4.13623c0.63783,1.85975 2.37788,3.03044 4.24121,3.03044c0.48375,0 0.96856,-0.07654 1.44873,-0.24495c2.33992,-0.79908 3.59515,-3.34303 2.79248,-5.68294l-11.64583,-34.04167c-0.61992,-1.80958 -2.32771,-3.03044 -4.24121,-3.03044zM40.34049,78.84033c-0.46751,-0.00364 -0.93928,0.06215 -1.39974,0.20996c-1.85258,0.59842 -3.10742,2.32704 -3.10742,4.2692v34.04167c0,2.4725 2.01366,4.47917 4.48616,4.47917c2.4725,0 4.47917,-2.00667 4.47917,-4.47917v-20.14925l3.52734,4.90609c1.68058,2.33992 5.58748,2.33992 7.27165,0l3.52734,-4.90609v20.14925c0,2.4725 2.00667,4.47917 4.47917,4.47917c2.4725,0 4.47917,-2.00667 4.47917,-4.47917v-34.04167c0,-1.94575 -1.25484,-3.67437 -3.10742,-4.2692c-1.849,-0.59125 -3.87873,0.07502 -5.01107,1.65169l-8.00651,11.13493l-8.00651,-11.13493c-0.84925,-1.1825 -2.20879,-1.85073 -3.61133,-1.86165zM108.06689,78.84733c-0.58005,0.04255 -1.16464,0.20162 -1.71468,0.48291c-2.20017,1.12875 -3.06739,3.83271 -1.93864,6.03288l10.59603,20.64616l-4.77311,9.30827c-1.12875,2.20017 -0.26153,4.89713 1.93864,6.02588c0.65217,0.33683 1.34862,0.49691 2.03662,0.49691c1.63042,0 3.20076,-0.88755 3.99626,-2.43555l17.46875,-34.04167c1.12875,-2.20017 0.25453,-4.90413 -1.94564,-6.03288c-2.20016,-1.12875 -4.89713,-0.25453 -6.02588,1.94564l-7.65658,14.92822l-7.66357,-14.92822c-0.84925,-1.65013 -2.57804,-2.55621 -4.3182,-2.42855zM87.79167,97.14893l2.92545,8.55941h-5.85091z"></path></g></g></svg>