<svg xmlns="http://www.w3.org/2000/svg" x="0px" y="0px"
width="96" height="96"
viewBox="0 0 172 172"
style=" fill:#000000;"><g fill="none" fill-rule="nonzero" stroke="none" stroke-width="1" stroke-linecap="butt" stroke-linejoin="miter" stroke-miterlimit="10" stroke-dasharray="" stroke-dashoffset="0" font-family="none" font-weight="none" font-size="none" text-anchor="none" style="mix-blend-mode: normal"><path d="M0,172v-172h172v172z" fill="none"></path><g fill="#ffffff"><path d="M44.79167,21.5c-12.79944,0 -23.29167,10.49222 -23.29167,23.29167v82.41667c0,12.79944 10.49222,23.29167 23.29167,23.29167h82.41667c12.79944,0 23.29167,-10.49222 23.29167,-23.29167v-82.41667c0,-12.79944 -10.49222,-23.29167 -23.29167,-23.29167zM44.79167,32.25h82.41667c6.98772,0 12.54167,5.55394 12.54167,12.54167v5.375h-107.5v-5.375c0,-6.98772 5.55394,-12.54167 12.54167,-12.54167zM32.25,60.91667h107.5v66.29167c0,6.98772 -5.55394,12.54167 -12.54167,12.54167h-82.41667c-6.98772,0 -12.54167,-5.55394 -12.54167,-12.54167zM40.41048,78.83333c-0.47216,-0.01002 -0.95132,0.05694 -1.42074,0.20296c-1.87408,0.5805 -3.15641,2.31953 -3.15641,4.2832v34.04167c0,2.4725 2.00667,4.47917 4.47917,4.47917c2.4725,0 4.47917,-2.00667 4.47917,-4.47917v-17.02083l11.53385,19.54736c0.85283,1.24342 2.24406,1.95264 3.69531,1.95264c0.44075,0 0.88559,-0.0668 1.32276,-0.20296c1.87408,-0.5805 3.15641,-2.31254 3.15641,-4.2762v-34.04167c0,-2.47608 -2.01366,-4.47917 -4.48616,-4.47917c-2.4725,0 -4.47917,2.00667 -4.47917,4.47917v17.02083l-11.52686,-19.55436c-0.83044,-1.21475 -2.18085,-1.92257 -3.59733,-1.95264zM86,78.83333c-9.87925,0 -17.91667,9.64275 -17.91667,21.5c0,11.85725 8.03742,21.5 17.91667,21.5c9.87925,0 17.91667,-9.64275 17.91667,-21.5c0,-11.85725 -8.03742,-21.5 -17.91667,-21.5zM131.6875,78.83333c-1.86333,0 -3.60338,1.17069 -4.24121,3.03044l-7.40462,21.65397l-7.40462,-21.65397c-0.80267,-2.33992 -3.34286,-3.58815 -5.68994,-2.78548c-2.33992,0.79908 -3.58457,3.34303 -2.78548,5.68294l11.64583,34.04167c0.61992,1.80958 2.32413,3.03044 4.24121,3.03044c1.91708,0 3.6143,-1.22085 4.23421,-3.03044l11.64583,-34.04167c0.80267,-2.33992 -0.44557,-4.88386 -2.78548,-5.68294c-0.48375,-0.16483 -0.97198,-0.24495 -1.45573,-0.24495zM86,87.79167c4.85542,0 8.95833,5.74408 8.95833,12.54167c0,6.79758 -4.10292,12.54167 -8.95833,12.54167c-4.85542,0 -8.95833,-5.74408 -8.95833,-12.54167c0,-6.79758 4.10292,-12.54167 8.95833,-12.54167z"></path></g></g></svg>