<svg xmlns="http://www.w3.org/2000/svg" x="0px" y="0px"
width="96" height="96"
viewBox="0 0 172 172"
style=" fill:#000000;"><g fill="none" fill-rule="nonzero" stroke="none" stroke-width="1" stroke-linecap="butt" stroke-linejoin="miter" stroke-miterlimit="10" stroke-dasharray="" stroke-dashoffset="0" font-family="none" font-weight="none" font-size="none" text-anchor="none" style="mix-blend-mode: normal"><path d="M0,172v-172h172v172z" fill="none"></path><g fill="#ffffff"><path d="M44.79167,21.5c-12.79944,0 -23.29167,10.49222 -23.29167,23.29167v82.41667c0,12.79944 10.49222,23.29167 23.29167,23.29167h82.41667c12.79944,0 23.29167,-10.49222 23.29167,-23.29167v-82.41667c0,-12.79944 -10.49222,-23.29167 -23.29167,-23.29167zM44.79167,32.25h82.41667c6.98772,0 12.54167,5.55394 12.54167,12.54167v5.375h-107.5v-5.375c0,-6.98772 5.55394,-12.54167 12.54167,-12.54167zM32.25,60.91667h107.5v66.29167c0,6.98772 -5.55394,12.54167 -12.54167,12.54167h-82.41667c-6.98772,0 -12.54167,-5.55394 -12.54167,-12.54167zM53.75,78.83333c-9.87925,0 -17.91667,9.64275 -17.91667,21.5c0,11.85725 8.03742,21.5 17.91667,21.5c9.87925,0 17.91667,-9.64275 17.91667,-21.5c0,-11.85725 -8.03742,-21.5 -17.91667,-21.5zM93.20866,78.83333c-9.90075,0 -17.95866,9.64275 -17.95866,21.5c0,11.85725 8.05433,21.5 17.95866,21.5c8.43158,0 12.57621,-5.7676 13.64046,-7.5306c1.28283,-2.11775 0.60603,-4.87261 -1.51172,-6.15186c-2.11058,-1.27925 -4.87261,-0.60245 -6.15185,1.51172c-0.45508,0.7525 -2.23589,3.2194 -5.97689,3.2194c-4.8805,0 -9.00033,-5.74408 -9.00033,-12.54167c0,-6.79758 4.11983,-12.54167 9.00033,-12.54167c3.73742,0 5.52181,2.4599 5.97689,3.2124c1.28642,2.11417 4.04485,2.79097 6.15185,1.51172c2.11775,-1.28283 2.79097,-4.03769 1.51172,-6.15185c-1.07142,-1.77017 -5.21604,-7.5376 -13.64046,-7.5376zM113.77083,78.83333c-2.4725,0 -4.47917,2.00667 -4.47917,4.47917c0,2.4725 2.00667,4.47917 4.47917,4.47917h4.47917v29.5625c0,2.4725 2.00667,4.47917 4.47917,4.47917c2.4725,0 4.47917,-2.00667 4.47917,-4.47917v-29.5625h4.47917c2.4725,0 4.47917,-2.00667 4.47917,-4.47917c0,-2.4725 -2.00667,-4.47917 -4.47917,-4.47917zM53.75,87.79167c4.85542,0 8.95833,5.74408 8.95833,12.54167c0,6.79758 -4.10292,12.54167 -8.95833,12.54167c-4.85542,0 -8.95833,-5.74408 -8.95833,-12.54167c0,-6.79758 4.10292,-12.54167 8.95833,-12.54167z"></path></g></g></svg>