<svg xmlns="http://www.w3.org/2000/svg" x="0px" y="0px"
width="96" height="96"
viewBox="0 0 172 172"
style=" fill:#000000;"><g fill="none" fill-rule="nonzero" stroke="none" stroke-width="1" stroke-linecap="butt" stroke-linejoin="miter" stroke-miterlimit="10" stroke-dasharray="" stroke-dashoffset="0" font-family="none" font-weight="none" font-size="none" text-anchor="none" style="mix-blend-mode: normal"><path d="M0,172v-172h172v172z" fill="none"></path><g fill="#ffffff"><path d="M44.79167,21.5c-12.79944,0 -23.29167,10.49222 -23.29167,23.29167v82.41667c0,12.79944 10.49222,23.29167 23.29167,23.29167h82.41667c12.79944,0 23.29167,-10.49222 23.29167,-23.29167v-82.41667c0,-12.79944 -10.49222,-23.29167 -23.29167,-23.29167zM44.79167,32.25h82.41667c6.98772,0 12.54167,5.55394 12.54167,12.54167v5.375h-107.5v-5.375c0,-6.98772 5.55394,-12.54167 12.54167,-12.54167zM32.25,60.91667h107.5v66.29167c0,6.98772 -5.55394,12.54167 -12.54167,12.54167h-82.41667c-6.98772,0 -12.54167,-5.55394 -12.54167,-12.54167zM51.73438,78.84033c-7.28492,0 -13.20654,5.8265 -13.20654,12.98958c0,7.16308 5.92163,12.98958 13.20654,12.98958h4.92708c2.35067,0 4.26221,1.80958 4.26221,4.03125c0,2.22167 -1.91512,4.03125 -4.26221,4.03125h-6.35482c-2.35067,0 -4.10924,-1.18603 -4.51416,-1.64469c-1.38675,-2.01025 -4.13752,-2.54786 -6.17285,-1.18978c-2.06042,1.36883 -2.61119,4.15101 -1.23877,6.20784c1.84541,2.7735 6.52945,5.58496 11.91878,5.58496h6.36182c7.2885,0 13.22054,-5.8265 13.22054,-12.98958c0,-7.16308 -5.92863,-12.98958 -13.21354,-12.98958h-4.92708c-2.34708,0 -4.25521,-1.80958 -4.25521,-4.03125c0,-2.22167 1.90812,-4.03125 4.25521,-4.03125h4.70313c2.24675,0 3.31262,1.41222 3.36637,1.47672c1.3115,2.09983 4.08019,2.7394 6.17285,1.42074c2.09625,-1.3115 2.73224,-4.0766 1.42074,-6.17285c-0.3655,-0.5805 -3.75746,-5.68294 -10.95996,-5.68294zM79.72917,78.84033c-2.4725,0 -4.47917,2.00667 -4.47917,4.47917v34.04167c0,2.4725 2.00667,4.47917 4.47917,4.47917h17.91667c2.4725,0 4.47917,-2.00667 4.47917,-4.47917c0,-2.4725 -2.00667,-4.47917 -4.47917,-4.47917h-13.4375v-8.0625h9.85417c2.4725,0 4.47917,-2.00667 4.47917,-4.47917c0,-2.4725 -2.00667,-4.47917 -4.47917,-4.47917h-9.85417v-8.0625h13.4375c2.4725,0 4.47917,-2.00667 4.47917,-4.47917c0,-2.4725 -2.00667,-4.47917 -4.47917,-4.47917zM111.97917,78.84033c-2.4725,0 -4.47917,2.00667 -4.47917,4.47917v34.04167c0,2.4725 2.00667,4.47917 4.47917,4.47917c2.4725,0 4.47917,-2.00667 4.47917,-4.47917v-6.27083h3.58333c8.89025,0 16.125,-7.23475 16.125,-16.125c0,-8.89025 -7.23475,-16.125 -16.125,-16.125zM116.45833,87.79866h3.58333c3.95242,0 7.16667,3.21425 7.16667,7.16667c0,3.95242 -3.21425,7.16667 -7.16667,7.16667h-3.58333z"></path></g></g></svg>