<svg xmlns="http://www.w3.org/2000/svg" x="0px" y="0px"
width="96" height="96"
viewBox="0 0 172 172"
style=" fill:#000000;"><g fill="none" fill-rule="nonzero" stroke="none" stroke-width="1" stroke-linecap="butt" stroke-linejoin="miter" stroke-miterlimit="10" stroke-dasharray="" stroke-dashoffset="0" font-family="none" font-weight="none" font-size="none" text-anchor="none" style="mix-blend-mode: normal"><path d="M0,172v-172h172v172z" fill="none"></path><g fill="#ffffff"><path d="M44.79167,21.5c-12.79944,0 -23.29167,10.49222 -23.29167,23.29167v82.41667c0,12.79944 10.49222,23.29167 23.29167,23.29167h82.41667c12.79944,0 23.29167,-10.49222 23.29167,-23.29167v-82.41667c0,-12.79944 -10.49222,-23.29167 -23.29167,-23.29167zM44.79167,32.25h82.41667c6.98772,0 12.54167,5.55394 12.54167,12.54167v5.375h-107.5v-5.375c0,-6.98772 5.55394,-12.54167 12.54167,-12.54167zM32.25,60.91667h107.5v66.29167c0,6.98772 -5.55394,12.54167 -12.54167,12.54167h-82.41667c-6.98772,0 -12.54167,-5.55394 -12.54167,-12.54167zM60.91667,75.25c-9.51733,0 -16.52768,6.02756 -17.86068,15.36214c-0.41925,2.93833 1.61782,5.66262 4.55615,6.08187c2.93475,0.42283 5.66262,-1.61423 6.08187,-4.55615c0.40133,-2.79858 1.98024,-6.13786 7.22266,-6.13786c3.95242,0 7.16667,3.21425 7.16667,7.16667c0,3.95242 -3.21425,7.16667 -7.16667,7.16667c-8.62867,0 -17.91667,6.16692 -17.91667,19.70833c0,2.97058 2.40442,5.375 5.375,5.375h25.08333c2.97058,0 5.375,-2.40442 5.375,-5.375c0,-2.97058 -2.40442,-5.375 -5.375,-5.375h-18.60254c1.69492,-3.25008 4.85687,-3.58333 6.06087,-3.58333c9.87925,0 17.91667,-8.03742 17.91667,-17.91667c0,-9.87925 -8.03742,-17.91667 -17.91667,-17.91667zM107.5,75.25c-11.85725,0 -21.5,11.25167 -21.5,25.08333c0,13.83167 9.64275,25.08333 21.5,25.08333c11.85725,0 21.5,-11.25167 21.5,-25.08333c0,-13.83167 -9.64275,-25.08333 -21.5,-25.08333zM107.5,86c5.8265,0 10.75,6.56467 10.75,14.33333c0,7.76867 -4.9235,14.33333 -10.75,14.33333c-5.8265,0 -10.75,-6.56467 -10.75,-14.33333c0,-7.76867 4.9235,-14.33333 10.75,-14.33333z"></path></g></g></svg>