<svg xmlns="http://www.w3.org/2000/svg" x="0px" y="0px"
width="96" height="96"
viewBox="0 0 172 172"
style=" fill:#000000;"><g fill="none" fill-rule="nonzero" stroke="none" stroke-width="1" stroke-linecap="butt" stroke-linejoin="miter" stroke-miterlimit="10" stroke-dasharray="" stroke-dashoffset="0" font-family="none" font-weight="none" font-size="none" text-anchor="none" style="mix-blend-mode: normal"><path d="M0,172v-172h172v172z" fill="none"></path><g fill="#ffffff"><path d="M86,14.33333c-23.42013,0 -44.25005,11.2845 -57.33333,28.70866v-12.58366c0.02085,-1.45347 -0.54782,-2.85342 -1.57634,-3.88062c-1.02852,-1.0272 -2.4292,-1.59408 -3.88264,-1.57136c-2.96578,0.04633 -5.33356,2.48614 -5.29102,5.45199v25.08333c0.0003,2.96841 2.40659,5.3747 5.375,5.375h25.08333c1.93842,0.02741 3.74144,-0.99102 4.71865,-2.66532c0.97721,-1.6743 0.97721,-3.74507 0,-5.41937c-0.97721,-1.6743 -2.78023,-2.69273 -4.71865,-2.66532h-11.64583c11.0692,-15.19979 28.98621,-25.08333 49.27083,-25.08333c33.70588,0 60.91667,27.21079 60.91667,60.91667c0,33.70588 -27.21079,60.91667 -60.91667,60.91667c-33.70588,0 -60.91667,-27.21079 -60.91667,-60.91667c0.02741,-1.93842 -0.99102,-3.74144 -2.66532,-4.71865c-1.6743,-0.97721 -3.74507,-0.97721 -5.41937,0c-1.6743,0.97721 -2.69273,2.78023 -2.66532,4.71865c0,39.51595 32.15071,71.66667 71.66667,71.66667c39.51595,0 71.66667,-32.15071 71.66667,-71.66667c0,-39.51595 -32.15071,-71.66667 -71.66667,-71.66667zM84.12435,46.50635c-2.96578,0.04633 -5.33356,2.48614 -5.29101,5.45198v43c0.0003,2.96841 2.40659,5.3747 5.375,5.375h28.66667c1.93842,0.02741 3.74144,-0.99102 4.71865,-2.66532c0.97721,-1.6743 0.97721,-3.74507 0,-5.41937c-0.97721,-1.6743 -2.78023,-2.69273 -4.71865,-2.66532h-23.29167v-37.625c0.02085,-1.45347 -0.54782,-2.85342 -1.57635,-3.88062c-1.02852,-1.0272 -2.4292,-1.59408 -3.88264,-1.57136z"></path></g></g></svg>