<?xml version="1.0" encoding="utf-8"?>
<svg width="172px" height="172px" viewBox="0 0 172 172" version="1.1" xmlns:xlink="http://www.w3.org/1999/xlink" xmlns="http://www.w3.org/2000/svg">
  <g id="upcoming-weeks">
    <g id="Group">
      <g id="Group-2">
        <path d="M0 172L0 0L172 0L172 172L0 172Z" id="Shape" fill="none" fill-rule="evenodd" stroke="none" />
      </g>
      <g id="Group" transform="translate(21.5 21.5)">
        <path d="M23.2917 0C10.4922 0 0 10.4922 0 23.2917L0 105.708C0 118.508 10.4922 129 23.2917 129L105.708 129C118.508 129 129 118.508 129 105.708L129 23.2917C129 10.4922 118.508 1.90735e-06 105.708 1.90735e-06L23.2917 0ZM23.2917 10.75L105.708 10.75C112.696 10.75 118.25 16.3039 118.25 23.2917L118.25 28.6667L10.75 28.6667L10.75 23.2917C10.75 16.304 16.3039 10.75 23.2917 10.75L23.2917 10.75ZM10.75 39.4167L118.25 39.4167L118.25 105.708C118.25 112.696 112.696 118.25 105.708 118.25L23.2916 118.25C16.3039 118.25 10.75 112.696 10.75 105.708L10.75 39.4167ZM80.2042 63.6688C78.2147 63.6688 76.6 65.4421 76.6 67.6271L76.6 97.7102C76.6 99.3537 77.5274 100.826 78.9258 101.409C80.33 101.991 81.907 101.564 82.896 100.339L91.1856 89.4163L99.1373 100.339C100.132 101.564 101.709 101.988 103.108 101.409C104.506 100.826 105.433 99.3568 105.433 97.7102L105.433 67.6271C105.433 65.4421 103.819 63.6688 101.829 63.6688C99.8396 63.6688 98.225 65.4421 98.225 67.6271L98.225 87.1217L93.8774 80.8317C92.5107 79.1439 89.8519 79.1439 88.4881 80.8317L83.8083 87.1217L83.8083 67.6271C83.8083 65.4421 82.1936 63.6688 80.2041 63.6688L80.2042 63.6688ZM25.8464 68.5005C23.601 68.5356 21.8083 70.3827 21.8405 72.6281L21.8405 75.341L19.1275 75.341C17.6599 75.3203 16.2948 76.0913 15.5549 77.3589C14.815 78.6265 14.815 80.1943 15.5549 81.4619C16.2948 82.7295 17.6599 83.5005 19.1275 83.4798L21.8405 83.4798L21.8405 86.1927C21.8197 87.6602 22.5908 89.0253 23.8584 89.7651C25.1261 90.505 26.6939 90.505 27.9616 89.7651C29.2292 89.0253 30.0003 87.6602 29.9795 86.1927L29.9795 83.4798L32.6925 83.4798C34.1601 83.5005 35.5252 82.7295 36.2651 81.4619C37.005 80.1943 37.005 78.6265 36.2651 77.3589C35.5252 76.0913 34.1601 75.3203 32.6925 75.341L29.9795 75.341L29.9795 72.6281C29.9953 71.5277 29.5648 70.4678 28.786 69.6902C28.0073 68.9125 26.9468 68.4833 25.8464 68.5005L25.8464 68.5005ZM57.3813 61.0148C56.9604 61.0423 56.5379 61.1041 56.1285 61.2106L45.3785 63.9965C42.562 64.7263 41.0383 67.0955 41.9772 69.2852C42.916 71.4748 45.9706 72.6678 48.7799 71.9295L52.4542 70.9719L52.4542 95.8213C52.4542 98.1307 54.8586 100 57.8292 100C60.7998 100 63.2042 98.1307 63.2042 95.8213L63.2042 65.1772C63.2042 63.8344 62.3727 62.573 60.9716 61.7874C59.9181 61.1982 58.6439 60.9321 57.3813 61.0147L57.3813 61.0148Z" id="Shape" fill="#FFFFFF" fill-rule="evenodd" stroke="none" />
      </g>
    </g>
  </g>
</svg>