<?xml version="1.0" encoding="utf-8"?>
<svg width="172px" height="172px" viewBox="0 0 172 172" version="1.1" xmlns:xlink="http://www.w3.org/1999/xlink" xmlns="http://www.w3.org/2000/svg">
  <g id="tbc">
    <g id="Group">
      <path d="M0 172L0 0L172 0L172 172L0 172Z" id="Shape" fill="none" fill-rule="evenodd" stroke="none" />
      <g id="Group" transform="translate(21.5 21.5)">
        <path d="M23.2917 0C10.4922 0 0 10.4922 0 23.2917L0 105.708C0 118.508 10.4922 129 23.2917 129L105.708 129C118.508 129 129 118.508 129 105.708L129 23.2917C129 10.4922 118.508 1.90735e-06 105.708 1.90735e-06L23.2917 0ZM23.2917 10.75L105.708 10.75C112.696 10.75 118.25 16.3039 118.25 23.2917L118.25 28.6667L10.75 28.6667L10.75 23.2917C10.75 16.304 16.304 10.75 23.2917 10.75L23.2917 10.75ZM10.75 39.4167L118.25 39.4167L118.25 105.708C118.25 112.696 112.696 118.25 105.708 118.25L23.2917 118.25C16.3039 118.25 10.75 112.696 10.75 105.708L10.75 39.4167ZM65.3948 104.5C62.9223 104.5 60.9156 102.493 60.9156 100.021C60.9156 97.5483 62.9223 95.5416 65.3948 95.5416C67.8673 95.5416 69.8739 97.5483 69.8739 100.021C69.8739 102.493 67.8673 104.5 65.3948 104.5L65.3948 104.5ZM72.8171 80.2281L71.8604 81.1454C69.7641 83.1879 68.535 84.4815 68.2663 86.6422C68.0405 88.4554 66.4961 89.7812 64.7152 89.7812C64.5683 89.7812 64.4178 89.7741 64.2673 89.7526C62.3036 89.5089 60.9097 87.7172 61.157 85.7536C61.7518 80.9913 64.6364 78.182 66.7398 76.1287L67.8793 75.0322C70.5059 72.5382 71.8783 71.1049 71.8783 68.2812C71.8783 64.3288 68.664 61.1146 64.7116 61.1146C60.7592 61.1146 57.5449 64.3288 57.5449 68.2812C57.5449 70.2592 55.9432 71.8646 53.9616 71.8646C51.98 71.8646 50.3783 70.2592 50.3783 68.2812C50.3783 60.3764 56.8068 53.9479 64.7116 53.9479C72.6164 53.9479 79.0449 60.3764 79.0449 68.2812C79.0449 74.312 75.5906 77.5943 72.8171 80.2281L72.8171 80.2281Z" id="Shape" fill="#FFFFFF" fill-rule="evenodd" stroke="none" />
      </g>
    </g>
  </g>
</svg>