<?xml version="1.0" encoding="utf-8"?>
<svg width="172px" height="172px" viewBox="0 0 172 172" version="1.1" xmlns:xlink="http://www.w3.org/1999/xlink" xmlns="http://www.w3.org/2000/svg">
  <g id="this-week">
    <g id="Group">
      <g id="Group-2">
        <path d="M0 172L0 0L172 0L172 172L0 172Z" id="Shape" fill="none" fill-rule="evenodd" stroke="none" />
      </g>
      <g id="Group" transform="translate(21.5 21.5)">
        <path d="M23.2917 0C10.4922 0 0 10.4922 0 23.2917L0 105.708C0 118.508 10.4922 129 23.2917 129L105.708 129C118.508 129 129 118.508 129 105.708L129 23.2917C129 10.4922 118.508 1.90735e-06 105.708 1.90735e-06L23.2917 0ZM23.2917 10.75L105.708 10.75C112.696 10.75 118.25 16.3039 118.25 23.2917L118.25 28.6667L10.75 28.6667L10.75 23.2917C10.75 16.304 16.3039 10.75 23.2917 10.75L23.2917 10.75ZM10.75 39.4167L118.25 39.4167L118.25 105.708C118.25 112.696 112.696 118.25 105.708 118.25L23.2916 118.25C16.3039 118.25 10.75 112.696 10.75 105.708L10.75 39.4167ZM84.2042 61.7026C82.2147 61.7026 80.6 63.4759 80.6 65.6609L80.6 95.744C80.6 97.3875 81.5274 98.8599 82.9258 99.4426C84.33 100.025 85.9071 99.5981 86.896 98.3726L95.1856 87.4501L103.137 98.3726C104.132 99.5981 105.709 100.022 107.108 99.4426C108.506 98.8599 109.433 97.3907 109.433 95.744L109.433 65.6609C109.433 63.4759 107.819 61.7026 105.829 61.7026C103.84 61.7026 102.225 63.4759 102.225 65.6609L102.225 85.1555L97.8775 78.8656C96.5108 77.1777 93.8519 77.1777 92.4881 78.8656L87.8083 85.1555L87.8083 65.6609C87.8083 63.4759 86.1936 61.7026 84.2041 61.7026L84.2042 61.7026ZM57.8613 59.5219C48.9483 59.5219 41.7 68.5109 41.7 79.561C41.7 90.6111 48.9483 99.6 57.8613 99.6C66.7743 99.6 74.0226 90.6111 74.0226 79.561C74.0226 68.5109 66.7743 59.5219 57.8613 59.5219L57.8613 59.5219ZM58.0657 68.1101C62.7191 68.1101 66.6514 73.3546 66.6514 79.561C66.6514 85.7674 62.7191 91.0119 58.0657 91.0119C53.4122 91.0119 49.48 85.7673 49.48 79.561C49.48 73.3546 53.4122 68.1101 58.0657 68.1101L58.0657 68.1101ZM25.846 68.5005C23.6006 68.5356 21.808 70.3827 21.8402 72.6281L21.8402 75.341L19.1273 75.341C17.6598 75.3203 16.2947 76.0913 15.5549 77.3589C14.815 78.6265 14.815 80.1943 15.5549 81.4619C16.2947 82.7295 17.6598 83.5005 19.1273 83.4798L21.8402 83.4798L21.8402 86.1927C21.8195 87.6602 22.5905 89.0253 23.8581 89.7651C25.1257 90.505 26.6935 90.505 27.9611 89.7651C29.2287 89.0253 29.9997 87.6602 29.979 86.1927L29.979 83.4798L32.6919 83.4798C34.1594 83.5005 35.5245 82.7295 36.2643 81.4619C37.0041 80.1943 37.0041 78.6265 36.2643 77.3589C35.5245 76.0913 34.1594 75.3203 32.6919 75.341L29.979 75.341L29.979 72.6281C29.9947 71.5277 29.5642 70.4678 28.7855 69.6902C28.0068 68.9125 26.9464 68.4833 25.846 68.5005L25.846 68.5005Z" id="Shape" fill="#FFFFFF" fill-rule="evenodd" stroke="none" />
      </g>
    </g>
  </g>
</svg>