<?xml version="1.0" encoding="utf-8"?>
<svg width="172px" height="172px" viewBox="0 0 172 172" version="1.1" xmlns:xlink="http://www.w3.org/1999/xlink" xmlns="http://www.w3.org/2000/svg">
  <g id="upcoming-weeks">
    <g id="Group">
      <g id="Group-2">
        <path d="M0 172L0 0L172 0L172 172L0 172Z" id="Shape" fill="none" fill-rule="evenodd" stroke="none" />
      </g>
      <g id="Group" transform="translate(21.5 21.5)">
        <path d="M23.2917 0C10.4922 0 0 10.4922 0 23.2917L0 105.708C0 118.508 10.4922 129 23.2917 129L105.708 129C118.508 129 129 118.508 129 105.708L129 23.2917C129 10.4922 118.508 1.90735e-06 105.708 1.90735e-06L23.2917 0ZM23.2917 10.75L105.708 10.75C112.696 10.75 118.25 16.3039 118.25 23.2917L118.25 28.6667L10.75 28.6667L10.75 23.2917C10.75 16.304 16.3039 10.75 23.2917 10.75L23.2917 10.75ZM10.75 39.4167L118.25 39.4167L118.25 105.708C118.25 112.696 112.696 118.25 105.708 118.25L23.2916 118.25C16.3039 118.25 10.75 112.696 10.75 105.708L10.75 39.4167ZM80.2042 61.2026C78.2147 61.2026 76.6 62.9759 76.6 65.1609L76.6 95.244C76.6 96.8875 77.5274 98.3599 78.9258 98.9425C80.33 99.5252 81.9071 99.098 82.896 97.8725L91.1856 86.9501L99.1373 97.8725C100.132 99.098 101.709 99.522 103.108 98.9425C104.506 98.3599 105.433 96.8906 105.433 95.244L105.433 65.1609C105.433 62.9759 103.819 61.2026 101.829 61.2026C99.8396 61.2026 98.225 62.9759 98.225 65.1609L98.225 84.6555L93.8775 78.3655C92.5108 76.6777 89.8519 76.6777 88.4881 78.3655L83.8083 84.6555L83.8083 65.1609C83.8083 62.9759 82.1936 61.2026 80.2041 61.2026L80.2042 61.2026ZM25.8464 68.5005C23.601 68.5356 21.8083 70.3827 21.8405 72.6281L21.8405 75.341L19.1275 75.341C17.6599 75.3203 16.2948 76.0913 15.5549 77.3589C14.815 78.6265 14.815 80.1943 15.5549 81.4619C16.2948 82.7295 17.6599 83.5005 19.1275 83.4798L21.8405 83.4798L21.8405 86.1927C21.8197 87.6602 22.5908 89.0253 23.8584 89.7651C25.1261 90.505 26.6939 90.505 27.9616 89.7651C29.2292 89.0253 30.0003 87.6602 29.9795 86.1927L29.9795 83.4798L32.6925 83.4798C34.1601 83.5005 35.5252 82.7295 36.2651 81.4619C37.005 80.1943 37.005 78.6265 36.2651 77.3589C35.5252 76.0913 34.1601 75.3203 32.6925 75.341L29.9795 75.341L29.9795 72.6281C29.9953 71.5277 29.5648 70.4678 28.786 69.6902C28.0073 68.9125 26.9468 68.4833 25.8464 68.5005L25.8464 68.5005ZM56.6167 57.7C48.693 57.7 42.8564 62.7664 41.7466 70.6124C41.3976 73.0821 43.0936 75.372 45.5399 75.7244C47.9832 76.0798 50.2543 74.3676 50.6034 71.8948C50.9375 69.5425 52.2521 66.7357 56.6167 66.7357C59.9073 66.7357 62.5834 69.4374 62.5834 72.7595C62.5834 76.0817 59.9073 78.7834 56.6167 78.7834C49.4328 78.7834 41.7 83.9669 41.7 95.3488C41.7 97.8457 43.7018 99.8667 46.175 99.8667L67.0583 99.8667C69.5315 99.8667 71.5333 97.8457 71.5333 95.3488C71.5333 92.852 69.5315 90.831 67.0583 90.831L51.5706 90.831C52.9818 88.0992 55.6143 87.8191 56.6167 87.8191C64.8417 87.8191 71.5333 81.0634 71.5333 72.7595C71.5333 64.4557 64.8417 57.7 56.6167 57.7L56.6167 57.7Z" id="Shape" fill="#FFFFFF" fill-rule="evenodd" stroke="none" />
      </g>
    </g>
  </g>
</svg>